<?xml version="1.0" encoding="utf-8"?>
<!-- Svg Vector Icons : http://www.onlinewebfonts.com/icon -->
<!DOCTYPE svg PUBLIC "-//W3C//DTD SVG 1.1//EN" "http://www.w3.org/Graphics/SVG/1.1/DTD/svg11.dtd">
<svg version="1.1" xmlns="http://www.w3.org/2000/svg" xmlns:xlink="http://www.w3.org/1999/xlink" x="0px" y="0px" viewBox="0 0 256 256" enable-background="new 0 0 256 256" xml:space="preserve">
<metadata> Svg Vector Icons : http://www.onlinewebfonts.com/icon </metadata>
<g><g><path fill="#000000" d="M180.5,204.7H75.5c-3.3,0-6-3.4-6-6.7c0-3.3,2.7-6.7,6-6.7h104.9c3.3,0,6,3.4,6,6.7C186.5,201.3,183.8,204.7,180.5,204.7z M180.5,167.2H75.5c-3.3,0-6-2.3-6-5.7c0-3.3,2.7-5.7,6-5.7h104.9c3.3,0,6,2.3,6,5.7C186.5,164.9,183.8,167.2,180.5,167.2z M180.5,128.1H75.5c-3.3,0-6-2.8-6-6.1s2.7-6.1,6-6.1h104.9c3.3,0,6,2.8,6,6.1C186.5,125.3,183.8,128.1,180.5,128.1z"/><path fill="#000000" d="M127.6,10c-13.1,0-24.2,6.7-29.9,17.9C103.4,16.7,114.4,10,127.6,10z"/><path fill="#000000" d="M157.5,27.9C151.8,16.7,140.7,10,127.6,10c-13.1,0-24.2,6.7-29.9,17.9H79.1v53.9h97.9V27.9H157.5z M168.6,73.5H87.4V36.2H103l1.7-3.7c3.9-8.5,11.5-13.6,21-14.2c0.6,0,1.3-0.1,1.9-0.1c10.4,0,18.8,5.2,22.9,14.2l1.7,3.7h16.4L168.6,73.5L168.6,73.5z"/><path fill="#000000" d="M220.7,49.9c-6.4-6.4-15.2-9.9-24.9-9.9h-26.2v34H86.8V40H62.6c-9.7,0-18.9,3.4-25.8,9.6c-7.4,6.5-11.4,15.5-11.4,25.3v133.4c0,20.2,17.4,37.8,37.3,37.8h133.2c9.8,0,18.7-4.2,25.3-11.8c6.1-7.1,9.5-16.3,9.5-26V74.8C230.6,65.1,227.1,56.2,220.7,49.9z M222.8,75v133v0.2c0,15.7-11.3,30-27,30H62.6c-15.7,0-29.4-14.3-29.4-30V208V75v-0.2c0-15.7,13.7-27,29.4-27h16.3v34h98.5v-34h18.3c15.7,0,27,11.3,27,27V75L222.8,75z"/></g></g>
</svg>